<svg width="41" height="36" viewBox="0 0 41 36" fill="none" xmlns="http://www.w3.org/2000/svg">
<path d="M7.35723 0.97639C6.88867 1.02888 6.46892 1.29255 6.21802 1.69183L0.25097 10.9332C-0.124682 11.5088 -0.074458 12.2691 0.37363 12.7905L19.2747 35.1632C19.569 35.5142 20.0043 35.7173 20.4624 35.7173C20.9204 35.7173 21.3556 35.5142 21.6499 35.1632L40.6116 12.7905C41.0596 12.2691 41.1103 11.5088 40.7341 10.9332L34.6471 1.67241C34.3594 1.23744 33.8707 0.975869 33.349 0.977618H7.52256C7.46797 0.974644 7.41322 0.974644 7.35863 0.977618L7.35723 0.97639ZM11.0499 4.07102H30.0645L20.5469 14.9086L11.0499 4.07102ZM7.75387 5.01129L18.9519 17.7978V29.9711L3.48907 11.6563L7.75387 5.01129ZM33.2263 5.16368L37.4988 11.6757L22.0465 29.9181V17.9089L33.2263 5.16368Z" fill="white"/>
</svg>
