<?xml version="1.0" encoding="UTF-8" standalone="no"?>
<svg
   xmlns:dc="http://purl.org/dc/elements/1.1/"
   xmlns:cc="http://creativecommons.org/ns#"
   xmlns:rdf="http://www.w3.org/1999/02/22-rdf-syntax-ns#"
   xmlns:svg="http://www.w3.org/2000/svg"
   xmlns="http://www.w3.org/2000/svg"
   xmlns:sodipodi="http://sodipodi.sourceforge.net/DTD/sodipodi-0.dtd"
   xmlns:inkscape="http://www.inkscape.org/namespaces/inkscape"
   width="35"
   height="35"
   viewBox="0 0 35 35"
   fill="none"
   version="1.1"
   id="svg15"
   sodipodi:docname="behance.svg"
   inkscape:version="1.0.1 (3bc2e813f5, 2020-09-07)">
  <metadata
     id="metadata19">
    <rdf:RDF>
      <cc:Work
         rdf:about="">
        <dc:format>image/svg+xml</dc:format>
        <dc:type
           rdf:resource="http://purl.org/dc/dcmitype/StillImage" />
      </cc:Work>
    </rdf:RDF>
  </metadata>
  <sodipodi:namedview
     pagecolor="#ffffff"
     bordercolor="#666666"
     borderopacity="1"
     objecttolerance="10"
     gridtolerance="10"
     guidetolerance="10"
     inkscape:pageopacity="0"
     inkscape:pageshadow="2"
     inkscape:window-width="1920"
     inkscape:window-height="1017"
     id="namedview17"
     showgrid="false"
     inkscape:zoom="8.5862966"
     inkscape:cx="24.186589"
     inkscape:cy="35.375229"
     inkscape:window-x="-8"
     inkscape:window-y="-8"
     inkscape:window-maximized="1"
     inkscape:current-layer="svg15" />
  <path
     id="path2"
     d="M 0 6.5625 L 0 28.03125 L 10.439453 28.03125 C 14.353553 28.03125 18.029297 26.158775 18.029297 21.796875 C 18.029297 19.101875 16.747909 17.109881 14.099609 16.363281 C 16.031909 15.443081 17.039063 14.049459 17.039062 11.880859 C 17.039062 7.6050694 13.842397 6.5625 10.154297 6.5625 L 0 6.5625 z M 22.847656 7.6894531 L 22.847656 9.8046875 L 31.580078 9.8046875 L 31.580078 7.6894531 L 22.847656 7.6894531 z M 4.734375 10.226562 L 9.1757812 10.226562 C 10.883451 10.226562 12.419922 10.705088 12.419922 12.679688 C 12.419922 14.502588 11.224873 15.236328 9.5332031 15.236328 L 4.734375 15.236328 L 4.734375 10.226562 z M 27.410156 12.048828 C 22.657356 12.048828 19.431641 15.610191 19.431641 20.275391 C 19.431641 25.117091 22.486856 28.4375 27.410156 28.4375 C 31.134756 28.4375 33.548184 26.764384 34.708984 23.208984 L 30.927734 23.208984 C 30.520834 24.536084 28.843869 25.238281 27.542969 25.238281 C 25.033169 25.238281 23.714844 23.77205 23.714844 21.28125 L 34.962891 21.28125 C 35.318791 16.29665 32.543456 12.048828 27.410156 12.048828 z M 27.277344 15.275391 C 29.428444 15.275391 30.510606 16.535103 30.691406 18.595703 L 23.720703 18.595703 C 23.862203 16.552603 25.224044 15.275391 27.277344 15.275391 z M 4.7324219 18.472656 L 9.8925781 18.472656 C 11.976498 18.472656 13.294922 19.339962 13.294922 21.539062 C 13.294922 23.707663 11.721352 24.384766 9.7949219 24.384766 L 4.7324219 24.384766 L 4.7324219 18.472656 z "
     style="fill:#000000" />
  <defs
     id="defs13">
    <clipPath
       id="clip0">
      <rect
         width="35"
         height="35"
         fill="white"
         id="rect10" />
    </clipPath>
  </defs>
</svg>
