<svg width="30" height="30" viewBox="0 0 30 30" fill="none" xmlns="http://www.w3.org/2000/svg">
<g clip-path="url(#clip0)">
<path d="M9.995 26.655C9.995 27.5238 9.34375 27.8825 8.6225 27.5238L0.8375 23.6325C0.6025 23.5213 0.405 23.335 0.24375 23.0738C0.0825 22.8125 0 22.5525 0 22.2963V3.2625C0 2.5525 0.42625 2.23125 1.39 2.71125L9.945 6.98625C10.0687 7.11 9.9775 6.26 9.995 26.655V26.655ZM11.0662 8.755L20.0062 23.215L11.0662 18.7738V8.755ZM30 9.05625V26.655C30 26.9338 29.9225 27.1588 29.765 27.3313C29.6088 27.5038 29.3962 27.59 29.1287 27.59C28.8612 27.59 28.5987 27.5175 28.3425 27.3725L20.96 23.6988L30 9.05625ZM29.95 7.0525C29.95 7.08625 28.5187 9.42125 25.6562 14.0563C22.7937 18.6913 21.1163 21.4063 20.625 22.1963L14.0963 11.61L19.52 2.81125C19.815 2.32625 20.42 2.24125 20.8262 2.44375L29.8837 6.9525C29.9275 6.97375 29.95 7.0075 29.95 7.0525V7.0525Z" fill="black"/>
</g>
<defs>
<clipPath id="clip0">
<rect width="30" height="30" fill="white"/>
</clipPath>
</defs>
</svg>
